<svg version="1.0" xmlns="http://www.w3.org/2000/svg"
 width="469.000000pt" height="404.000000pt" viewBox="0 0 469.000000 404.000000"
 preserveAspectRatio="xMidYMid meet">

<g transform="translate(0.000000,404.000000) scale(0.100000,-0.100000)"
fill="#000000" stroke="none">
<path d="M0 2020 l0 -2020 2345 0 2345 0 0 2020 0 2020 -2345 0 -2345 0 0
-2020z m1245 1010 c27 -13 115 -97 256 -243 450 -466 429 -442 429 -478 0 -45
-34 -79 -78 -79 -40 0 -26 -13 -412 388 -212 219 -268 272 -289 272 -20 0 -45
-20 -106 -84 -44 -46 -175 -183 -292 -304 -168 -174 -213 -226 -218 -253 -3
-19 -5 -202 -3 -407 l3 -374 33 -29 32 -29 538 0 c579 0 575 0 600 -54 16 -32
2 -80 -29 -96 -11 -6 -237 -10 -576 -10 -540 0 -559 1 -603 21 -58 26 -96 62
-128 124 l-27 50 0 425 c0 415 0 426 22 472 30 66 585 642 656 681 61 34 132
36 192 7z m485 -982 c84 -43 113 -140 68 -228 -28 -54 -74 -80 -143 -80 -69 0
-114 26 -143 81 -28 54 -26 135 4 177 25 34 98 72 139 72 17 0 51 -10 75 -22z
m-810 -3 c20 -10 33 -28 41 -54 23 -78 -35 -131 -143 -131 l-58 0 0 -47 c0
-56 -11 -78 -34 -70 -14 5 -16 28 -16 155 0 82 3 152 7 155 13 14 173 7 203
-8z m417 -19 c20 -24 24 -36 19 -65 -3 -20 -15 -44 -26 -53 l-21 -17 20 -28
c38 -53 36 -135 -3 -120 -11 4 -16 19 -16 47 0 61 -25 80 -105 80 l-64 0 -3
-62 c-2 -48 -7 -63 -18 -63 -13 0 -15 25 -18 158 l-3 159 107 -4 c103 -3 106
-4 131 -32z m833 19 c20 -10 33 -28 41 -54 23 -78 -35 -131 -143 -131 l-58 0
0 -47 c0 -56 -11 -78 -34 -70 -14 5 -16 28 -16 155 0 82 3 152 7 155 13 14
173 7 203 -8z m416 4 c10 -17 -16 -29 -68 -29 l-47 0 -3 -137 c-3 -115 -6
-138 -18 -138 -12 0 -15 23 -18 138 l-3 137 -48 0 c-46 0 -80 18 -64 33 11 12
261 8 269 -4z m169 -149 c0 -148 -1 -155 -20 -155 -19 0 -20 8 -23 145 -1 79
0 150 3 158 3 7 13 12 22 10 16 -3 18 -18 18 -158z m267 78 c19 -46 43 -104
54 -130 10 -27 22 -48 25 -48 4 0 28 53 54 118 26 64 52 123 58 130 6 7 22 12
36 10 l26 -3 3 -158 c2 -147 1 -158 -15 -155 -16 3 -19 19 -23 133 l-5 130
-55 -130 c-49 -115 -58 -130 -79 -130 -25 0 -27 5 -123 230 -11 27 -13 17 -18
-100 -4 -107 -8 -130 -20 -130 -13 0 -15 24 -18 145 -1 79 0 150 2 157 3 7 19
13 35 13 27 0 31 -6 63 -82z m463 -78 c0 -139 -2 -155 -17 -158 -17 -3 -18 10
-18 158 0 148 1 161 18 158 15 -3 17 -19 17 -158z m395 140 c0 -11 -43 -73
-97 -138 l-96 -117 99 -5 c79 -4 99 -8 99 -20 0 -23 -248 -22 -253 1 -2 9 41
70 94 135 l96 119 -73 3 c-94 3 -119 9 -119 27 0 12 21 15 125 15 119 0 125
-1 125 -20z m373 13 c4 -3 2 -12 -4 -20 -8 -9 -37 -13 -95 -13 l-84 0 0 -50 0
-50 85 0 c66 0 85 -3 85 -14 0 -20 -23 -26 -101 -26 l-69 0 0 -50 0 -49 93 -3
c74 -2 92 -6 92 -18 0 -12 -20 -16 -112 -18 l-113 -3 0 161 0 160 108 0 c60 0
112 -3 115 -7z"/>
<path d="M1600 2013 c-75 -39 -90 -147 -28 -205 25 -23 39 -28 83 -28 46 0 58
4 83 30 100 100 -13 267 -138 203z"/>
<path d="M760 1960 l0 -60 53 0 c70 0 101 17 105 56 5 48 -18 64 -94 64 l-64
0 0 -60z"/>
<path d="M1140 1965 l0 -55 63 0 c75 0 107 18 107 60 0 39 -23 50 -104 50
l-66 0 0 -55z"/>
<path d="M2010 1960 l0 -60 53 0 c70 0 101 17 105 56 5 48 -18 64 -94 64 l-64
0 0 -60z"/>
</g>
</svg>