<svg version="1.1" id="Layer_1" xmlns="http://www.w3.org/2000/svg" xmlns:xlink="http://www.w3.org/1999/xlink" x="0px" y="0px"
	 width="100%" viewBox="0 0 500 500" enable-background="new 0 0 500 500" xml:space="preserve">
<path fill="#050A30" opacity="1.000000" stroke="none" 
	d="
M283.000000,501.000000 
	C188.666687,501.000000 94.833382,501.000000 1.000050,501.000000 
	C1.000034,334.333405 1.000034,167.666794 1.000017,1.000140 
	C167.666565,1.000093 334.333130,1.000093 500.999756,1.000047 
	C500.999847,167.666519 500.999847,334.333038 500.999939,500.999786 
	C428.500000,501.000000 356.000000,501.000000 283.000000,501.000000 
M124.499527,341.239807 
	C142.997391,341.235718 161.495438,341.274323 179.993027,341.200500 
	C185.278122,341.179413 188.603333,338.188416 188.812988,333.691925 
	C189.013550,329.390839 185.628830,325.822754 180.655762,325.234253 
	C179.009186,325.039368 177.329544,325.086884 175.664993,325.086517 
	C143.835052,325.079041 112.005096,325.086670 80.175148,325.077240 
	C71.127174,325.074554 67.553093,321.468964 67.545082,312.315399 
	C67.528183,292.984131 68.024574,273.635895 67.349121,254.328262 
	C66.976517,243.677567 69.340279,235.486359 77.426430,227.793198 
	C93.585381,212.419617 108.629913,195.876877 124.199173,179.879745 
	C127.962914,176.012573 130.460892,176.117889 134.391449,179.900314 
	C135.710342,181.169479 136.933731,182.537613 138.207382,183.854126 
	C156.392639,202.651382 174.592941,221.434128 192.751511,240.257141 
	C195.771988,243.388123 199.154984,244.446945 203.100098,242.396561 
	C208.259567,239.714981 208.714355,233.409286 203.996140,228.490143 
	C184.508759,208.172897 165.036301,187.840179 145.395889,167.671371 
	C135.967316,157.989120 122.012360,158.385406 112.492897,168.248734 
	C94.793343,186.587616 77.155815,204.986557 59.406784,223.277374 
	C53.898705,228.953583 51.017258,235.598373 51.007343,243.463913 
	C50.977932,266.794708 51.141369,290.126862 50.942799,313.455994 
	C50.817017,328.233734 62.202896,341.976776 79.008461,341.354248 
	C93.819893,340.805603 108.667725,341.239502 124.499527,341.239807 
M338.020264,267.262817 
	C338.023010,273.754089 337.878143,280.250916 338.123535,286.733002 
	C338.192108,288.544250 339.412292,290.311920 340.104218,292.099579 
	C340.887634,290.399994 342.287811,288.721710 342.347290,286.997162 
	C342.599640,279.682343 342.657135,272.344574 342.323486,265.036285 
	C342.229675,262.981384 341.040253,259.854462 339.516022,259.214905 
	C336.089661,257.777283 334.831055,260.797821 333.731934,263.620636 
	C330.793488,271.167145 327.667358,278.640594 324.283661,286.959686 
	C323.440155,285.105408 323.006256,284.237091 322.643311,283.340057 
	C319.779877,276.263672 317.136810,269.085449 313.916351,262.176056 
	C313.198822,260.636658 310.465057,260.037048 308.659607,259.004730 
	C307.775513,260.565704 306.359100,262.051056 306.124329,263.704193 
	C305.707306,266.641022 306.006165,269.679565 306.006287,272.675537 
	C306.006531,278.001709 305.892609,283.332336 306.097443,288.650635 
	C306.142456,289.819183 307.321228,290.944031 307.977905,292.089020 
	C308.776794,290.912994 309.906250,289.833252 310.284424,288.534698 
	C310.686676,287.153503 310.378174,285.565002 310.378265,284.067017 
	C310.378723,278.397461 310.378479,272.727905 310.378479,267.058350 
	C310.798615,267.001709 311.218750,266.945099 311.638916,266.888458 
	C314.474518,273.883942 317.178497,280.937836 320.239136,287.833435 
	C320.995422,289.537231 322.910583,290.726624 324.292999,292.152496 
	C325.633423,290.671112 327.408691,289.396332 328.229553,287.668152 
	C330.361938,283.178772 331.985901,278.450928 333.989929,273.896240 
	C335.119293,271.329498 336.599213,268.916931 338.020264,267.262817 
M191.327820,263.168945 
	C190.124741,262.290100 189.000626,261.267090 187.704926,260.557343 
	C182.081772,257.477173 173.710266,258.254883 168.906952,262.209015 
	C163.690735,266.503052 161.707565,274.127075 163.938293,281.310181 
	C166.005753,287.967560 171.023224,291.977631 178.255295,292.447876 
	C184.893234,292.879486 190.539474,290.739899 193.770386,284.643768 
	C197.621994,277.376526 197.001984,270.259399 191.327820,263.168945 
M124.001167,283.411896 
	C124.001961,285.243073 123.734268,287.129822 124.097771,288.885925 
	C124.340752,290.059723 125.481270,291.047760 126.220123,292.118927 
	C126.940536,291.021240 128.172653,289.972137 128.282349,288.816528 
	C128.573898,285.744843 128.381378,282.627197 128.381378,279.619232 
	C141.668869,278.255768 141.635941,278.266144 145.340866,290.039337 
	C145.610001,290.894531 146.907379,292.037109 147.630417,291.972290 
	C148.403732,291.902985 149.643936,290.583893 149.676178,289.770508 
	C149.863052,285.058533 149.387451,280.474426 144.845169,277.303253 
	C148.915176,274.208832 151.430389,270.460144 149.258987,265.272644 
	C147.126785,260.178772 142.523621,259.277161 137.698853,259.089844 
	C134.540482,258.967224 131.365433,259.196991 128.213440,259.008240 
	C124.870110,258.808105 123.868248,260.286896 123.952240,263.456146 
	C124.119781,269.777557 124.001442,276.106598 124.001167,283.411896 
M428.544373,287.975555 
	C426.119446,287.975555 423.694489,287.975555 421.402344,287.975555 
	C421.402344,284.192841 421.402344,281.098969 421.402344,277.731567 
	C425.842010,277.731567 430.001831,277.900024 434.133820,277.634796 
	C435.472870,277.548828 436.738983,276.326538 438.038452,275.624023 
	C436.768341,274.899200 435.532410,273.631866 434.221863,273.549408 
	C429.975037,273.282166 425.700836,273.449554 421.282776,273.449554 
	C421.282776,269.696075 421.282776,266.576172 421.282776,263.163605 
	C426.430023,263.163605 431.423309,263.287842 436.401794,263.071228 
	C437.563782,263.020660 438.675415,261.812958 439.810242,261.137634 
	C438.680420,260.441589 437.573090,259.191223 436.416962,259.144348 
	C431.094269,258.928680 425.742462,258.829926 420.437805,259.206543 
	C419.157532,259.297455 417.014496,261.324860 416.973053,262.520844 
	C416.673187,271.174011 416.716278,279.844574 416.920990,288.503235 
	C416.948975,289.688049 418.424164,291.802887 419.311615,291.847443 
	C425.294281,292.147705 431.301025,292.080292 437.294495,291.922302 
	C438.144073,291.899902 438.963623,290.740326 439.797089,290.107117 
	C438.865753,289.398163 437.993805,288.198669 436.991333,288.077332 
	C434.528168,287.779083 432.004883,287.977112 428.544373,287.975555 
M229.964432,260.209503 
	C224.529160,259.820221 219.096298,259.264954 213.656509,259.185699 
	C212.605164,259.170410 210.627594,260.993378 210.601166,262.008026 
	C210.363419,271.141968 210.402069,280.285950 210.566833,289.423218 
	C210.583389,290.340820 211.969284,291.233734 212.719650,292.138123 
	C213.463715,291.224304 214.754181,290.363708 214.849365,289.386719 
	C215.134354,286.461334 214.951874,283.490448 214.951874,280.020172 
	C218.607132,280.020172 221.894165,280.145416 225.168137,279.992035 
	C230.658768,279.734711 234.666946,276.927582 235.674408,272.433411 
	C236.802628,267.400452 235.435928,263.224396 229.964432,260.209503 
M104.153564,260.024597 
	C98.875366,259.697113 93.597496,259.197418 88.318687,259.187317 
	C87.263000,259.185303 85.312225,261.027252 85.285645,262.057922 
	C85.050095,271.191742 85.089844,280.335571 85.261528,289.472443 
	C85.278595,290.380951 86.713158,291.262848 87.489838,292.157074 
	C88.244781,291.231598 89.551941,290.361145 89.650673,289.370270 
	C89.941887,286.447845 89.754669,283.477753 89.754669,280.035217 
	C93.290863,280.035217 96.412720,280.135010 99.525978,280.013794 
	C105.438248,279.783508 109.093620,277.142822 110.430740,272.319031 
	C111.777412,267.460815 110.012863,263.630341 104.153564,260.024597 
M383.766418,259.046326 
	C383.433777,259.046417 383.069244,258.956482 382.773743,259.061279 
	C380.949646,259.708221 379.141083,260.399048 377.327362,261.075287 
	C379.074432,261.804810 380.787292,263.043762 382.575287,263.163818 
	C387.078400,263.466187 391.615356,263.263916 397.063782,263.263916 
	C395.405884,265.464661 394.469055,266.784515 393.454620,268.041779 
	C388.757446,273.863312 383.967773,279.612366 379.382782,285.520477 
	C378.368835,286.827026 378.051422,288.674133 377.413239,290.272308 
	C379.006378,290.856354 380.582581,291.882080 382.195770,291.944000 
	C387.676086,292.154388 393.176208,292.171997 398.653412,291.924286 
	C400.087921,291.859375 401.466888,290.566895 402.871338,289.838165 
	C401.521393,289.217346 400.191528,288.118835 398.817871,288.061066 
	C393.726501,287.846863 388.620667,287.975739 382.704376,287.975739 
	C383.613617,286.762939 384.041626,286.153351 384.508514,285.575134 
	C389.939392,278.849060 395.433990,272.172913 400.755402,265.361450 
	C401.664429,264.197968 402.684387,261.847900 402.162170,261.128998 
	C401.315643,259.963654 399.263123,259.232452 397.670319,259.136230 
	C393.361786,258.876007 389.027283,259.046570 383.766418,259.046326 
M253.363068,263.151459 
	C256.176697,262.692078 257.067139,263.831787 256.994812,266.690216 
	C256.805878,274.157837 256.862915,281.634949 257.018311,289.104187 
	C257.039124,290.104553 258.194214,291.081299 258.824066,292.069000 
	C259.616577,291.074921 260.733856,290.189484 261.112732,289.057037 
	C261.512817,287.861298 261.211761,286.429993 261.211945,285.101593 
	C261.212982,277.872437 261.212433,270.643280 261.212433,263.151093 
	C263.480530,263.151093 265.173157,263.391327 266.763733,263.091095 
	C268.807373,262.705322 270.769043,261.885590 272.766052,261.252838 
	C270.675385,260.521698 268.618347,259.307068 266.487091,259.158752 
	C261.859985,258.836731 257.179199,258.831451 252.551880,259.152008 
	C250.106064,259.321472 246.706589,257.258881 245.384567,261.350739 
	C247.739502,261.950928 250.094452,262.551117 253.363068,263.151459 
M289.824554,281.447998 
	C289.820679,274.986511 289.928101,268.521149 289.702240,262.067444 
	C289.665039,261.004761 288.165497,259.993286 287.341797,258.958130 
	C286.601746,259.892059 285.234863,260.815338 285.218781,261.761566 
	C285.061371,271.036407 285.064423,280.316315 285.237885,289.590729 
	C285.254303,290.466705 286.742828,291.315155 287.547852,292.176422 
	C288.295929,291.244995 289.540619,290.386810 289.690948,289.367279 
	C290.025848,287.095856 289.813751,284.743744 289.824554,281.447998 
M363.094391,285.359894 
	C363.093323,277.745422 363.174316,270.129089 363.004669,262.518372 
	C362.978516,261.344604 361.800842,260.196472 361.155701,259.036499 
	C360.378815,260.220001 358.954742,261.389374 358.928528,262.589264 
	C358.737061,271.358276 358.751770,280.134888 358.922729,288.904755 
	C358.943634,289.977844 360.277039,291.025299 361.002197,292.084656 
	C361.698517,290.989014 362.538727,289.954193 363.036896,288.774841 
	C363.333740,288.072113 363.093292,287.142456 363.094391,285.359894 
z"/>
<path fill="#EBB82B" opacity="1.000000" stroke="none" 
	d="
M123.999504,341.239685 
	C108.667725,341.239502 93.819893,340.805603 79.008461,341.354248 
	C62.202896,341.976776 50.817017,328.233734 50.942799,313.455994 
	C51.141369,290.126862 50.977932,266.794708 51.007343,243.463913 
	C51.017258,235.598373 53.898705,228.953583 59.406784,223.277374 
	C77.155815,204.986557 94.793343,186.587616 112.492897,168.248734 
	C122.012360,158.385406 135.967316,157.989120 145.395889,167.671371 
	C165.036301,187.840179 184.508759,208.172897 203.996140,228.490143 
	C208.714355,233.409286 208.259567,239.714981 203.100098,242.396561 
	C199.154984,244.446945 195.771988,243.388123 192.751511,240.257141 
	C174.592941,221.434128 156.392639,202.651382 138.207382,183.854126 
	C136.933731,182.537613 135.710342,181.169479 134.391449,179.900314 
	C130.460892,176.117889 127.962914,176.012573 124.199173,179.879745 
	C108.629913,195.876877 93.585381,212.419617 77.426430,227.793198 
	C69.340279,235.486359 66.976517,243.677567 67.349121,254.328262 
	C68.024574,273.635895 67.528183,292.984131 67.545082,312.315399 
	C67.553093,321.468964 71.127174,325.074554 80.175148,325.077240 
	C112.005096,325.086670 143.835052,325.079041 175.664993,325.086517 
	C177.329544,325.086884 179.009186,325.039368 180.655762,325.234253 
	C185.628830,325.822754 189.013550,329.390839 188.812988,333.691925 
	C188.603333,338.188416 185.278122,341.179413 179.993027,341.200500 
	C161.495438,341.274323 142.997391,341.235718 123.999504,341.239685 
z"/>
<path fill="#F5F5F7" opacity="1.000000" stroke="none" 
	d="
M337.970764,266.848877 
	C336.599213,268.916931 335.119293,271.329498 333.989929,273.896240 
	C331.985901,278.450928 330.361938,283.178772 328.229553,287.668152 
	C327.408691,289.396332 325.633423,290.671112 324.292999,292.152496 
	C322.910583,290.726624 320.995422,289.537231 320.239136,287.833435 
	C317.178497,280.937836 314.474518,273.883942 311.638916,266.888458 
	C311.218750,266.945099 310.798615,267.001709 310.378479,267.058350 
	C310.378479,272.727905 310.378723,278.397461 310.378265,284.067017 
	C310.378174,285.565002 310.686676,287.153503 310.284424,288.534698 
	C309.906250,289.833252 308.776794,290.912994 307.977905,292.089020 
	C307.321228,290.944031 306.142456,289.819183 306.097443,288.650635 
	C305.892609,283.332336 306.006531,278.001709 306.006287,272.675537 
	C306.006165,269.679565 305.707306,266.641022 306.124329,263.704193 
	C306.359100,262.051056 307.775513,260.565704 308.659607,259.004730 
	C310.465057,260.037048 313.198822,260.636658 313.916351,262.176056 
	C317.136810,269.085449 319.779877,276.263672 322.643311,283.340057 
	C323.006256,284.237091 323.440155,285.105408 324.283661,286.959686 
	C327.667358,278.640594 330.793488,271.167145 333.731934,263.620636 
	C334.831055,260.797821 336.089661,257.777283 339.516022,259.214905 
	C341.040253,259.854462 342.229675,262.981384 342.323486,265.036285 
	C342.657135,272.344574 342.599640,279.682343 342.347290,286.997162 
	C342.287811,288.721710 340.887634,290.399994 340.104218,292.099579 
	C339.412292,290.311920 338.192108,288.544250 338.123535,286.733002 
	C337.878143,280.250916 338.023010,273.754089 337.970764,266.848877 
z"/>
<path fill="#EFF0F2" opacity="1.000000" stroke="none" 
	d="
M191.580872,263.431458 
	C197.001984,270.259399 197.621994,277.376526 193.770386,284.643768 
	C190.539474,290.739899 184.893234,292.879486 178.255295,292.447876 
	C171.023224,291.977631 166.005753,287.967560 163.938293,281.310181 
	C161.707565,274.127075 163.690735,266.503052 168.906952,262.209015 
	C173.710266,258.254883 182.081772,257.477173 187.704926,260.557343 
	C189.000626,261.267090 190.124741,262.290100 191.580872,263.431458 
M185.158768,287.132721 
	C186.114807,286.490417 187.193268,285.974243 188.006363,285.184723 
	C192.252884,281.061279 193.023666,273.375793 189.794556,268.154266 
	C186.958542,263.568420 180.776154,261.549957 175.319336,263.428314 
	C169.876129,265.301971 166.849747,270.844727 167.649780,277.474915 
	C168.681732,286.027069 174.686417,289.614532 185.158768,287.132721 
z"/>
<path fill="#F2F3F5" opacity="1.000000" stroke="none" 
	d="
M124.001175,282.922180 
	C124.001442,276.106598 124.119781,269.777557 123.952240,263.456146 
	C123.868248,260.286896 124.870110,258.808105 128.213440,259.008240 
	C131.365433,259.196991 134.540482,258.967224 137.698853,259.089844 
	C142.523621,259.277161 147.126785,260.178772 149.258987,265.272644 
	C151.430389,270.460144 148.915176,274.208832 144.845169,277.303253 
	C149.387451,280.474426 149.863052,285.058533 149.676178,289.770508 
	C149.643936,290.583893 148.403732,291.902985 147.630417,291.972290 
	C146.907379,292.037109 145.610001,290.894531 145.340866,290.039337 
	C141.635941,278.266144 141.668869,278.255768 128.381378,279.619232 
	C128.381378,282.627197 128.573898,285.744843 128.282349,288.816528 
	C128.172653,289.972137 126.940536,291.021240 126.220123,292.118927 
	C125.481270,291.047760 124.340752,290.059723 124.097771,288.885925 
	C123.734268,287.129822 124.001961,285.243073 124.001175,282.922180 
M133.563583,263.190216 
	C131.965744,263.267426 130.367920,263.344635 128.740875,263.423248 
	C128.740875,267.487488 128.740875,271.171570 128.740875,275.387207 
	C133.249542,275.007568 137.482147,275.172485 141.365860,274.087952 
	C143.113602,273.599945 145.283783,270.572235 145.211273,268.779816 
	C145.141403,267.052490 142.701385,264.904999 140.796906,263.918732 
	C139.031708,263.004547 136.597763,263.381714 133.563583,263.190216 
z"/>
<path fill="#F2F3F5" opacity="1.000000" stroke="none" 
	d="
M429.025085,287.975525 
	C432.004883,287.977112 434.528168,287.779083 436.991333,288.077332 
	C437.993805,288.198669 438.865753,289.398163 439.797089,290.107117 
	C438.963623,290.740326 438.144073,291.899902 437.294495,291.922302 
	C431.301025,292.080292 425.294281,292.147705 419.311615,291.847443 
	C418.424164,291.802887 416.948975,289.688049 416.920990,288.503235 
	C416.716278,279.844574 416.673187,271.174011 416.973053,262.520844 
	C417.014496,261.324860 419.157532,259.297455 420.437805,259.206543 
	C425.742462,258.829926 431.094269,258.928680 436.416962,259.144348 
	C437.573090,259.191223 438.680420,260.441589 439.810242,261.137634 
	C438.675415,261.812958 437.563782,263.020660 436.401794,263.071228 
	C431.423309,263.287842 426.430023,263.163605 421.282776,263.163605 
	C421.282776,266.576172 421.282776,269.696075 421.282776,273.449554 
	C425.700836,273.449554 429.975037,273.282166 434.221863,273.549408 
	C435.532410,273.631866 436.768341,274.899200 438.038452,275.624023 
	C436.738983,276.326538 435.472870,277.548828 434.133820,277.634796 
	C430.001831,277.900024 425.842010,277.731567 421.402344,277.731567 
	C421.402344,281.098969 421.402344,284.192841 421.402344,287.975555 
	C423.694489,287.975555 426.119446,287.975555 429.025085,287.975525 
z"/>
<path fill="#ECEDEF" opacity="1.000000" stroke="none" 
	d="
M230.304108,260.409424 
	C235.435928,263.224396 236.802628,267.400452 235.674408,272.433411 
	C234.666946,276.927582 230.658768,279.734711 225.168137,279.992035 
	C221.894165,280.145416 218.607132,280.020172 214.951874,280.020172 
	C214.951874,283.490448 215.134354,286.461334 214.849365,289.386719 
	C214.754181,290.363708 213.463715,291.224304 212.719666,292.138123 
	C211.969284,291.233734 210.583389,290.340820 210.566833,289.423218 
	C210.402069,280.285950 210.363419,271.141968 210.601166,262.008026 
	C210.627594,260.993378 212.605164,259.170410 213.656509,259.185699 
	C219.096298,259.264954 224.529160,259.820221 230.304108,260.409424 
M214.952744,265.778015 
	C214.952744,269.055420 214.952744,272.332794 214.952744,276.138275 
	C219.161575,275.916626 222.999237,276.118042 226.664703,275.417908 
	C231.108261,274.569122 232.921509,269.681396 230.538254,266.157471 
	C228.247543,262.770294 218.402390,261.940521 214.952744,265.778015 
z"/>
<path fill="#ECEDEF" opacity="1.000000" stroke="none" 
	d="
M104.524185,260.163147 
	C110.012863,263.630341 111.777412,267.460815 110.430740,272.319031 
	C109.093620,277.142822 105.438248,279.783508 99.525978,280.013794 
	C96.412720,280.135010 93.290863,280.035217 89.754669,280.035217 
	C89.754669,283.477753 89.941887,286.447845 89.650673,289.370270 
	C89.551941,290.361145 88.244781,291.231598 87.489830,292.157074 
	C86.713158,291.262848 85.278595,290.380951 85.261528,289.472443 
	C85.089844,280.335571 85.050095,271.191742 85.285645,262.057922 
	C85.312225,261.027252 87.263000,259.185303 88.318687,259.187317 
	C93.597496,259.197418 98.875366,259.697113 104.524185,260.163147 
M105.887421,271.956787 
	C106.606224,264.059418 101.026192,261.230347 90.018883,263.915070 
	C90.018883,267.822449 90.018883,271.729828 90.018883,275.986694 
	C95.499168,275.378021 101.239899,277.818542 105.887421,271.956787 
z"/>
<path fill="#F2F3F5" opacity="1.000000" stroke="none" 
	d="
M384.234741,259.046295 
	C389.027283,259.046570 393.361786,258.876007 397.670319,259.136230 
	C399.263123,259.232452 401.315643,259.963654 402.162170,261.128998 
	C402.684387,261.847900 401.664429,264.197968 400.755402,265.361450 
	C395.433990,272.172913 389.939392,278.849060 384.508514,285.575134 
	C384.041626,286.153351 383.613617,286.762939 382.704376,287.975739 
	C388.620667,287.975739 393.726501,287.846863 398.817871,288.061066 
	C400.191528,288.118835 401.521393,289.217346 402.871338,289.838165 
	C401.466888,290.566895 400.087921,291.859375 398.653412,291.924286 
	C393.176208,292.171997 387.676086,292.154388 382.195770,291.944000 
	C380.582581,291.882080 379.006378,290.856354 377.413239,290.272308 
	C378.051422,288.674133 378.368835,286.827026 379.382782,285.520477 
	C383.967773,279.612366 388.757446,273.863312 393.454620,268.041779 
	C394.469055,266.784515 395.405884,265.464661 397.063782,263.263916 
	C391.615356,263.263916 387.078400,263.466187 382.575287,263.163818 
	C380.787292,263.043762 379.074432,261.804810 377.327362,261.075287 
	C379.141083,260.399048 380.949646,259.708221 382.773743,259.061279 
	C383.069244,258.956482 383.433777,259.046417 384.234741,259.046295 
z"/>
<path fill="#F8F8F9" opacity="1.000000" stroke="none" 
	d="
M252.906219,263.151367 
	C250.094452,262.551117 247.739502,261.950928 245.384567,261.350739 
	C246.706589,257.258881 250.106064,259.321472 252.551880,259.152008 
	C257.179199,258.831451 261.859985,258.836731 266.487091,259.158752 
	C268.618347,259.307068 270.675385,260.521698 272.766052,261.252838 
	C270.769043,261.885590 268.807373,262.705322 266.763733,263.091095 
	C265.173157,263.391327 263.480530,263.151093 261.212433,263.151093 
	C261.212433,270.643280 261.212982,277.872437 261.211945,285.101593 
	C261.211761,286.429993 261.512817,287.861298 261.112732,289.057037 
	C260.733856,290.189484 259.616577,291.074921 258.824066,292.069000 
	C258.194214,291.081299 257.039124,290.104553 257.018311,289.104187 
	C256.862915,281.634949 256.805878,274.157837 256.994812,266.690216 
	C257.067139,263.831787 256.176697,262.692078 252.906219,263.151367 
z"/>
<path fill="#E0E0E5" opacity="1.000000" stroke="none" 
	d="
M289.824554,281.936279 
	C289.813751,284.743744 290.025848,287.095856 289.690948,289.367279 
	C289.540619,290.386810 288.295929,291.244995 287.547852,292.176422 
	C286.742828,291.315155 285.254303,290.466705 285.237885,289.590729 
	C285.064423,280.316315 285.061371,271.036407 285.218781,261.761566 
	C285.234863,260.815338 286.601746,259.892059 287.341797,258.958130 
	C288.165497,259.993286 289.665039,261.004761 289.702240,262.067444 
	C289.928101,268.521149 289.820679,274.986511 289.824554,281.936279 
z"/>
<path fill="#F8F8F9" opacity="1.000000" stroke="none" 
	d="
M363.094391,285.837341 
	C363.093292,287.142456 363.333740,288.072113 363.036896,288.774841 
	C362.538727,289.954193 361.698517,290.989014 361.002197,292.084656 
	C360.277039,291.025299 358.943634,289.977844 358.922729,288.904755 
	C358.751770,280.134888 358.737061,271.358276 358.928528,262.589264 
	C358.954742,261.389374 360.378815,260.220001 361.155701,259.036499 
	C361.800842,260.196472 362.978516,261.344604 363.004669,262.518372 
	C363.174316,270.129089 363.093323,277.745422 363.094391,285.837341 
z"/>
<path fill="#0A0F34" opacity="1.000000" stroke="none" 
	d="
M184.798920,287.319153 
	C174.686417,289.614532 168.681732,286.027069 167.649780,277.474915 
	C166.849747,270.844727 169.876129,265.301971 175.319336,263.428314 
	C180.776154,261.549957 186.958542,263.568420 189.794556,268.154266 
	C193.023666,273.375793 192.252884,281.061279 188.006363,285.184723 
	C187.193268,285.974243 186.114807,286.490417 184.798920,287.319153 
z"/>
<path fill="#0D1236" opacity="1.000000" stroke="none" 
	d="
M134.010941,263.190247 
	C136.597763,263.381714 139.031708,263.004547 140.796906,263.918732 
	C142.701385,264.904999 145.141403,267.052490 145.211273,268.779816 
	C145.283783,270.572235 143.113602,273.599945 141.365860,274.087952 
	C137.482147,275.172485 133.249542,275.007568 128.740875,275.387207 
	C128.740875,271.171570 128.740875,267.487488 128.740875,263.423248 
	C130.367920,263.344635 131.965744,263.267426 134.010941,263.190247 
z"/>
<path fill="#0D1236" opacity="1.000000" stroke="none" 
	d="
M214.961090,265.311646 
	C218.402390,261.940521 228.247543,262.770294 230.538254,266.157471 
	C232.921509,269.681396 231.108261,274.569122 226.664703,275.417908 
	C222.999237,276.118042 219.161575,275.916626 214.952744,276.138275 
	C214.952744,272.332794 214.952744,269.055420 214.961090,265.311646 
z"/>
<path fill="#0D1236" opacity="1.000000" stroke="none" 
	d="
M105.708130,272.327515 
	C101.239899,277.818542 95.499168,275.378021 90.018883,275.986694 
	C90.018883,271.729828 90.018883,267.822449 90.020203,263.913940 
	C101.026192,261.230347 106.606224,264.059418 105.708130,272.327515 
z"/>
</svg>