<svg version="1.0" xmlns="http://www.w3.org/2000/svg"
 width="292.000000pt" height="265.000000pt" viewBox="0 0 292.000000 265.000000"
 preserveAspectRatio="xMidYMid meet">

<g transform="translate(0.000000,265.000000) scale(0.100000,-0.100000)"
fill="#000000" stroke="none">
<path d="M0 1325 l0 -1325 1460 0 1460 0 0 1325 0 1325 -1460 0 -1460 0 0
-1325z m1628 1068 c37 -20 148 -129 401 -391 336 -347 351 -364 351 -400 0
-67 -63 -109 -120 -81 -16 8 -182 173 -370 367 -308 318 -345 352 -373 352
-29 0 -64 -33 -347 -326 -173 -180 -320 -336 -327 -348 -9 -15 -12 -131 -13
-446 0 -409 1 -426 20 -458 39 -63 28 -62 683 -62 l594 0 23 -25 c16 -17 24
-37 24 -60 0 -23 -8 -43 -24 -60 l-23 -25 -617 0 c-695 0 -672 -2 -759 76 -29
26 -58 65 -72 96 l-24 53 0 466 0 465 30 57 c45 86 661 721 730 753 71 34 147
32 213 -3z m-23 -794 c55 -15 104 -54 122 -97 23 -55 13 -141 -20 -185 -43
-56 -85 -71 -219 -75 l-118 -4 0 -93 c0 -72 -4 -97 -16 -109 -19 -20 -29 -20
-48 0 -14 13 -16 53 -16 283 0 194 3 270 12 279 15 15 247 16 303 1z m313
-491 c7 -7 12 -21 12 -33 0 -28 -19 -45 -50 -45 -31 0 -50 17 -50 45 0 12 5
26 12 33 15 15 61 15 76 0z"/>
<path d="M1370 1425 l0 -118 110 5 c125 5 155 18 178 80 12 30 11 40 -1 71
-25 58 -55 71 -179 76 l-108 3 0 -117z"/>
</g>
</svg>
